<svg width="19" height="17" viewBox="0 0 19 17" fill="none" xmlns="http://www.w3.org/2000/svg">
<g id="bi:calendar-x-fill" opacity="0.6">
<path id="Vector" d="M7 1C7 0.867392 6.94732 0.740215 6.85355 0.646447C6.75979 0.552678 6.63261 0.5 6.5 0.5C6.36739 0.5 6.24021 0.552678 6.14645 0.646447C6.05268 0.740215 6 0.867392 6 1V1.5H5C4.46957 1.5 3.96086 1.71071 3.58579 2.08579C3.21071 2.46086 3 2.96957 3 3.5L3 4.5H19V3.5C19 2.96957 18.7893 2.46086 18.4142 2.08579C18.0391 1.71071 17.5304 1.5 17 1.5H16V1C16 0.867392 15.9473 0.740215 15.8536 0.646447C15.7598 0.552678 15.6326 0.5 15.5 0.5C15.3674 0.5 15.2402 0.552678 15.1464 0.646447C15.0527 0.740215 15 0.867392 15 1V1.5H7V1ZM19 14.5V5.5H3V14.5C3 15.0304 3.21071 15.5391 3.58579 15.9142C3.96086 16.2893 4.46957 16.5 5 16.5H17C17.5304 16.5 18.0391 16.2893 18.4142 15.9142C18.7893 15.5391 19 15.0304 19 14.5ZM9.854 8.646L11 9.793L12.146 8.646C12.2399 8.55211 12.3672 8.49937 12.5 8.49937C12.6328 8.49937 12.7601 8.55211 12.854 8.646C12.9479 8.73989 13.0006 8.86722 13.0006 9C13.0006 9.13278 12.9479 9.26011 12.854 9.354L11.707 10.5L12.854 11.646C12.9479 11.7399 13.0006 11.8672 13.0006 12C13.0006 12.1328 12.9479 12.2601 12.854 12.354C12.7601 12.4479 12.6328 12.5006 12.5 12.5006C12.3672 12.5006 12.2399 12.4479 12.146 12.354L11 11.207L9.854 12.354C9.76011 12.4479 9.63278 12.5006 9.5 12.5006C9.36722 12.5006 9.23989 12.4479 9.146 12.354C9.05211 12.2601 8.99937 12.1328 8.99937 12C8.99937 11.8672 9.05211 11.7399 9.146 11.646L10.293 10.5L9.146 9.354C9.09951 9.30751 9.06264 9.25232 9.03748 9.19158C9.01232 9.13084 8.99937 9.06574 8.99937 9C8.99937 8.93426 9.01232 8.86916 9.03748 8.80842C9.06264 8.74768 9.09951 8.69249 9.146 8.646C9.19249 8.59951 9.24768 8.56264 9.30842 8.53748C9.36916 8.51232 9.43426 8.49937 9.5 8.49937C9.56574 8.49937 9.63084 8.51232 9.69158 8.53748C9.75232 8.56264 9.80751 8.59951 9.854 8.646Z" fill="black"/>
</g>
</svg>
