<svg width="40" height="40" viewBox="0 0 40 40" fill="none" xmlns="http://www.w3.org/2000/svg">
<g id="mdi:file-excel" opacity="0.4">
<path id="Vector" d="M23.3334 3.33333H10.0001C9.11603 3.33333 8.26818 3.68452 7.64306 4.30964C7.01794 4.93476 6.66675 5.78261 6.66675 6.66666V33.3333C6.66675 34.2174 7.01794 35.0652 7.64306 35.6904C8.26818 36.3155 9.11603 36.6667 10.0001 36.6667H30.0001C30.8841 36.6667 31.732 36.3155 32.3571 35.6904C32.9822 35.0652 33.3334 34.2174 33.3334 33.3333V13.3333L23.3334 3.33333ZM26.3334 33.3333H23.3334L20.0001 27.6667L16.6667 33.3333H13.6667L18.5001 25.8333L13.6667 18.3333H16.6667L20.0001 24L23.3334 18.3333H26.3334L21.5001 25.8333L26.3334 33.3333ZM21.6667 15V5.83333L30.8334 15H21.6667Z" fill="black"/>
</g>
</svg>
