<svg width="25" height="24" viewBox="0 0 25 24" fill="none" xmlns="http://www.w3.org/2000/svg">
<g id="lets-icons:group-fill" opacity="0.6">
<path id="Vector" d="M16 13C18.2091 13 20 11.2091 20 9C20 6.79086 18.2091 5 16 5C13.7909 5 12 6.79086 12 9C12 11.2091 13.7909 13 16 13Z" fill="black"/>
<path id="Vector_2" d="M21 12C22.6569 12 24 10.6569 24 9C24 7.34315 22.6569 6 21 6C19.3431 6 18 7.34315 18 9C18 10.6569 19.3431 12 21 12Z" fill="black"/>
<path id="Vector_3" d="M11 12C12.6569 12 14 10.6569 14 9C14 7.34315 12.6569 6 11 6C9.34315 6 8 7.34315 8 9C8 10.6569 9.34315 12 11 12Z" fill="black"/>
<path id="Vector_4" fill-rule="evenodd" clip-rule="evenodd" d="M21.569 18H23.895C24.487 18 24.94 17.49 24.797 16.916C24.428 15.446 23.448 13 21 13C20.114 13 19.42 13.32 18.878 13.8C20.386 14.777 21.166 16.49 21.569 18ZM13.122 13.8C12.5411 13.2749 11.783 12.9891 11 13C8.55197 13 7.57197 15.446 7.20297 16.916C7.05997 17.49 7.51297 18 8.10497 18H10.432C10.835 16.49 11.614 14.777 13.122 13.8Z" fill="black"/>
<path id="Vector_5" d="M16 14C19.709 14 20.666 17.301 20.914 19.006C20.994 19.553 20.552 20 20 20H12C11.448 20 11.007 19.553 11.086 19.006C11.334 17.301 12.291 14 16 14Z" fill="black"/>
</g>
</svg>
