<svg width="24" height="63" viewBox="0 0 24 63" fill="none" xmlns="http://www.w3.org/2000/svg">
<g id="material-symbols-light:database">
<path id="Vector" d="M10.02 54C12.2507 54 14.1413 53.6593 15.692 52.978C17.2433 52.2973 18.019 51.471 18.019 50.499C18.019 49.527 17.2433 48.7007 15.692 48.02C14.1407 47.3393 12.25 46.9993 10.02 47C7.79 47.0007 5.89567 47.3407 4.337 48.02C2.77833 48.6993 1.99933 49.526 2 50.5C2.00067 51.474 2.77967 52.3 4.337 52.978C5.89433 53.656 7.78833 53.9963 10.019 53.999M10 55.538C10.8113 55.538 11.6367 55.4733 12.476 55.344C13.3153 55.2153 14.104 55.0247 14.842 54.772C15.58 54.5193 16.23 54.2063 16.792 53.833C17.354 53.4597 17.763 53.028 18.019 52.538V55.499C17.763 55.989 17.354 56.4207 16.792 56.794C16.2307 57.168 15.5807 57.4813 14.842 57.734C14.104 57.9867 13.3153 58.1773 12.476 58.306C11.6367 58.4347 10.8113 58.499 10 58.499C9.18867 58.499 8.36333 58.4347 7.524 58.306C6.68467 58.1773 5.899 57.9867 5.167 57.734C4.435 57.4813 3.78833 57.168 3.227 56.794C2.66567 56.42 2.25667 55.9887 2 55.5V52.538C2.256 53.0273 2.665 53.459 3.227 53.833C3.78833 54.2063 4.435 54.5197 5.167 54.773C5.899 55.025 6.68467 55.2157 7.524 55.345C8.36333 55.4743 9.18867 55.5387 10 55.538ZM10 60.038C10.8113 60.038 11.6367 59.9737 12.476 59.845C13.3147 59.7157 14.1033 59.5247 14.842 59.272C15.5807 59.0193 16.2307 58.7063 16.792 58.333C17.3533 57.9597 17.7623 57.528 18.019 57.038V59.98C17.763 60.47 17.354 60.9017 16.792 61.275C16.2307 61.6483 15.5807 61.9617 14.842 62.215C14.104 62.4677 13.3153 62.6583 12.476 62.787C11.6367 62.9157 10.8113 62.98 10 62.98C9.18867 62.98 8.36333 62.9157 7.524 62.787C6.68467 62.6583 5.899 62.4677 5.167 62.215C4.435 61.9623 3.78833 61.649 3.227 61.275C2.66567 60.901 2.25667 60.4693 2 59.98V57.038C2.25667 57.5273 2.66567 57.959 3.227 58.333C3.78833 58.707 4.435 59.0203 5.167 59.273C5.899 59.5257 6.68467 59.7163 7.524 59.845C8.36333 59.9737 9.18867 60.038 10 60.038Z" fill="#32B67A"/>
</g>
</svg>
